<svg id="icons" height="512" viewBox="0 0 340 340" width="512" xmlns="http://www.w3.org/2000/svg"
  xmlns:xlink="http://www.w3.org/1999/xlink">
  <linearGradient id="New_Gradient_Swatch_32" gradientUnits="userSpaceOnUse" x1="53.741" x2="42.22" y1="167.315"
    y2="230.615">
    <stop offset="0" stop-color="#8a8fc1" />
    <stop offset="1" stop-color="#5b6094" />
  </linearGradient>
  <linearGradient id="New_Gradient_Swatch_32-2" x1="44.311" x2="143.712" xlink:href="#New_Gradient_Swatch_32"
    y1="240.434" y2="299.759" />
  <linearGradient id="linear-gradient" gradientUnits="userSpaceOnUse" x1="102.871" x2="136.122" y1="295.782"
    y2="225.081">
    <stop offset="0" stop-color="#a3acff" />
    <stop offset=".5" stop-color="#bce4ff" />
    <stop offset="1" stop-color="#f3ffff" />
  </linearGradient>
  <linearGradient id="linear-gradient-2" x1="130.222" x2="160.848" xlink:href="#linear-gradient" y1="239.265"
    y2="160.339" />
  <linearGradient id="linear-gradient-3" x1="99.733" x2="178.834" xlink:href="#New_Gradient_Swatch_32" y1="197.972"
    y2="266.572" />
  <linearGradient id="linear-gradient-4" gradientUnits="userSpaceOnUse" x1="283.285" x2="125.275" y1="74.589"
    y2="238.629">
    <stop offset="0" stop-color="#ffa4aa" />
    <stop offset="1" stop-color="#f45aad" />
  </linearGradient>
  <linearGradient id="linear-gradient-5" x1="161.998" x2="3.988" xlink:href="#linear-gradient-4" y1="-42.239"
    y2="121.802" />
  <linearGradient id="linear-gradient-6" gradientTransform="matrix(.806 .592 -.592 .806 129.64 -154.715)" x1="315.073"
    x2="157.063" xlink:href="#linear-gradient-4" y1="105.208" y2="269.249" />
  <path d="m67.19 163.392-17.059 2.543s1.641 35.508-29.612 76.155l22.978-.92c36.103-32.712 23.693-77.778 23.693-77.778z"
    fill="url(#New_Gradient_Swatch_32)" />
  <path
    d="m20.519 242.09s31.171 31.91 55.67 52.992a92.553 92.553 0 0 0 68.951 22.311c16.307-1.548 35.317-7.241 55.385-20.994l-158.045-58.573z"
    fill="url(#New_Gradient_Swatch_32-2)" />
  <path
    d="m67.19 163.392c48.522 41.985 93.2 86.185 133.335 133.007s-56.044 22.714-96.243-2.847c0 0-34.537-25.3-61.8-55.726-.002 0 25.035-27.797 24.708-74.434z"
    fill="url(#linear-gradient)" />
  <path
    d="m67.19 163.392c46.637.212 74.372-24.892 74.372-24.892 30.5 27.189 55.879 61.664 55.879 61.664 25.659 40.136 3.085 96.236 3.084 96.236z"
    fill="url(#linear-gradient-2)" />
  <path
    d="m74.849 235.017s16.168-17.951 15.957-48.067c30.116.137 48.027-16.075 48.027-16.075 19.693 17.558 36.084 39.821 36.084 39.821 16.57 25.918 1.992 62.145 1.992 62.145s-36.192 14.668-62.15-1.838c0-.003-22.303-16.336-39.91-35.986z"
    fill="url(#linear-gradient-3)" />
  <path
    d="m275.72 214.031c1.839-18.4 26.656-31.611 38.079-36.755a1.59 1.59 0 0 0 -.44-3.023c-14.838-2.1-51.619-10.72-53.211-44.468-1.535-32.556 23.389-72.436 34.975-89.109a1.589 1.589 0 0 0 -2.206-2.215c-12.789 8.747-39.4 25.294-67.949 33.18a45.808 45.808 0 0 1 -45.7-12.837c-6.668-7.147-13.113-16.418-16.268-27.58a1.59 1.59 0 0 0 -3.072 0c-2.637 10.069-8.683 28.994-19.289 41.2a27.472 27.472 0 0 1 -20.958 9.376 46.925 46.925 0 0 1 -27.381-8.634 1.584 1.584 0 0 0 -2.5 1.369c.366 7.862 1.55 27.848 4.7 45.9a8.134 8.134 0 0 0 12.117 5.6 88.543 88.543 0 0 1 45.12-11.807c48.165.431 87.575 39.735 88.129 87.9a88.616 88.616 0 0 1 -9.185 40.458 8.108 8.108 0 0 0 6.74 11.677c16.206 1.085 43.97 2.236 66.9-.4a1.59 1.59 0 0 0 .558-2.992c-9.786-5.093-31.008-18.35-29.159-36.84z"
    fill="url(#linear-gradient-4)" />
  <path
    d="m90.609 24.694a7.219 7.219 0 0 0 -11.44.574c-1.76 2.491-2.929 6.235-1.532 11.68a50.734 50.734 0 0 0 7.352 16.664 1.583 1.583 0 0 0 2.668-.135 50.734 50.734 0 0 0 5.643-17.315c.848-5.562-.691-9.162-2.691-11.468z"
    fill="url(#linear-gradient-5)" />
  <ellipse cx="300.613" cy="120.22" fill="url(#linear-gradient-6)" rx="13.259" ry="11.766"
    transform="matrix(.806 -.592 .592 .806 -12.793 201.444)" />
  <g fill="#3c3c4f">
    <path
      d="m200.062 198.234c-.256-.348-25.936-35.062-56.334-62.164a3.258 3.258 0 0 0 -4.347.014c-.268.241-27.229 24.054-71.611 24.054-.188 0-18.119 2.576-18.119 2.576a3.262 3.262 0 0 0 -2.772 3.365c.015.345 1.129 34.919-28.941 74.027a3.257 3.257 0 0 0 .253 4.26c.312.32 31.55 32.247 55.875 53.183a96.648 96.648 0 0 0 62.723 23.494 66.287 66.287 0 0 0 8.659-.409c26.821-3.53 45.432-14.171 53.538-19.669a16.593 16.593 0 0 0 6.42-8.536c5-15.1 16.724-59.689-5.223-94.019-.038-.06-.083-.119-.121-.176zm-146.685-29.492 10.523-1.568c-.9 38.361-19.424 63.069-23.178 67.687l-12.774 2.577c22.336-32.094 25.146-59.779 25.429-68.696zm91.455 145.411a89.658 89.658 0 0 1 -66.519-21.537c-18.747-16.136-41.682-38.9-51.106-48.387l14.106-2.846c26.981 29.719 60.7 54.544 61.045 54.795.058.042.117.082.177.121 15.182 9.653 32.345 12.736 48.083 12.736a138.049 138.049 0 0 0 23.646-2.139 105.556 105.556 0 0 1 -29.432 7.257zm-38.71-23.288c-1.869-1.381-33.586-24.956-59.342-53.138 5.6-7.165 21.651-30.686 23.488-66.667l17.27 17.228c-.269 27.527-14.883 44.3-15.11 44.554a3.256 3.256 0 0 0 0 4.348c17.631 19.675 39.488 35.764 40.41 36.439q.087.063.177.12c10.01 6.365 21.312 8.395 31.661 8.395a98.86 98.86 0 0 0 31.416-5.523l18.483 18.437c-14.092 4.618-56.737 15.899-88.453-4.193zm-12.098-100.705c23.353-.762 39.039-10.758 44.686-15.006 17.7 16.263 32.444 35.936 33.524 37.389 13.655 21.486 4.445 51.2 2.138 57.768-6.565 2.324-36.254 11.606-57.773-2-1.456-1.077-21.164-15.771-37.471-33.431 4.234-5.654 14.192-21.361 14.896-44.72zm105.142 100.286-18.48-18.434c2.9-8.255 12.148-39.335-3.026-63.07-.038-.06-.079-.119-.122-.176-.677-.92-16.819-22.739-36.539-40.32a3.261 3.261 0 0 0 -4.346.011c-.168.152-16.916 14.885-44.517 15.223l-17.271-17.228c35.977-1.926 59.457-18.034 66.608-23.652 28.246 25.686 51.9 57.345 53.284 59.211 20.143 31.62 8.985 74.323 4.409 88.435z" />
    <path
      d="m319.643 171.651c-.544-.028-54.411-3.171-56.243-42.019-1.916-40.615 39.62-94.329 40.04-94.867a3.256 3.256 0 0 0 -4.557-4.579c-.356.275-36.041 27.617-74.782 38.317a42.415 42.415 0 0 1 -42.453-11.92c-9.536-10.22-15.222-21.214-16.9-32.678a3.254 3.254 0 0 0 -3.149-2.783h-.072a3.255 3.255 0 0 0 -3.2 2.643c-.058.3-5.9 30.118-20.155 46.527a24.137 24.137 0 0 1 -18.272 8.258h-.2c-7.469-.059-18.379-1.832-27.943-9.941a3.256 3.256 0 0 0 -5.359 2.584c.008.265.866 26.751 4.887 49.8a11.2 11.2 0 0 0 6.359 8.322 11.489 11.489 0 0 0 10.591-.461 85.615 85.615 0 0 1 42.7-11.375h.766c46.284.413 84.371 38.4 84.9 84.682a84.8 84.8 0 0 1 -8.844 38.971 11.367 11.367 0 0 0 9.443 16.374c8.587.575 21.1 1.208 34.535 1.208 12.827 0 26.5-.577 38.391-2.334a3.255 3.255 0 0 0 .78-6.223c-.341-.144-34.082-14.537-31.955-35.8 2.164-21.642 41.251-36.253 41.645-36.4a3.256 3.256 0 0 0 -.961-6.307zm-47.162 42.056c-1.781 17.81 14.92 30.8 26.173 37.451-21.818 1.917-46.837.8-61.011-.147a4.856 4.856 0 0 1 -4.043-6.991 91.289 91.289 0 0 0 9.52-41.934c-.572-49.8-41.554-90.672-91.355-91.117-.275 0-.549 0-.824 0a92.134 92.134 0 0 0 -45.947 12.244 4.9 4.9 0 0 1 -4.582.207 4.773 4.773 0 0 1 -2.707-3.545 386.807 386.807 0 0 1 -4.481-42.175 50.881 50.881 0 0 0 26.431 7.356 30.74 30.74 0 0 0 23.436-10.5c9.409-10.82 15.294-26.402 18.509-37.205a73.761 73.761 0 0 0 15.284 23.673 48.914 48.914 0 0 0 48.946 13.755c24.581-6.79 47.472-19.69 61.817-28.9-12.748 19.5-32.155 54.36-30.754 84.057.88 18.659 12.094 32.935 32.43 41.287a97.342 97.342 0 0 0 18.275 5.368c-13.01 6.5-33.344 19.386-35.117 37.116z" />
    <path
      d="m84.586 18.971a10.455 10.455 0 0 0 -8.076 4.419c-1.91 2.71-3.815 7.394-2.026 14.368 3.362 13.109 9.3 19.626 9.545 19.9a3.259 3.259 0 0 0 2.389 1.042h.164a3.253 3.253 0 0 0 2.434-1.29c.223-.294 5.472-7.372 7.506-20.753 1.081-7.116-1.283-11.591-3.456-14.093a10.463 10.463 0 0 0 -8.48-3.593zm5.5 16.7a50.91 50.91 0 0 1 -3.974 13.669 50.854 50.854 0 0 1 -5.322-13.2c-.94-3.663-.591-6.688 1.037-8.992a3.989 3.989 0 0 1 3.086-1.674c.072 0 .143-.006.214-.006a3.979 3.979 0 0 1 3.025 1.362c1.848 2.13 2.501 5.105 1.933 8.842z" />
    <path
      d="m291.715 108.119a17.311 17.311 0 0 0 -6.766 10.27 14.106 14.106 0 0 0 12.741 17.329c.5.045 1 .069 1.5.069a17.781 17.781 0 0 0 17.09-13.737 14.106 14.106 0 0 0 -12.742-17.328 17.341 17.341 0 0 0 -11.823 3.397zm16.958 6.175a7.859 7.859 0 0 1 1.239 6.393 11.223 11.223 0 0 1 -11.625 8.548 7.6 7.6 0 0 1 -6.972-9.482 10.821 10.821 0 0 1 4.256-6.39 10.966 10.966 0 0 1 6.468-2.2q.452 0 .9.041a7.856 7.856 0 0 1 5.734 3.09z" />
  </g>
</svg>