<?xml version="1.0" encoding="iso-8859-1"?>
<!-- Generator: Adobe Illustrator 19.0.0, SVG Export Plug-In . SVG Version: 6.00 Build 0)  -->
<svg version="1.1" id="Capa_1" xmlns="http://www.w3.org/2000/svg" xmlns:xlink="http://www.w3.org/1999/xlink" x="0px"
	y="0px" viewBox="0 0 512 512" style="enable-background:new 0 0 512 512;" xml:space="preserve">
	<path style="fill:#CE4E41;" d="M491.212,504.724H20.706c-7.439,0-13.47-6.03-13.47-13.47V20.747c0-7.439,6.03-13.47,13.47-13.47
	h470.507c7.439,0,13.471,6.031,13.471,13.47v470.507C504.682,498.692,498.652,504.724,491.212,504.724z" />
	<path style="fill:#C1403A;" d="M59.759,491.253V20.747c0-7.439,6.03-13.471,13.47-13.471H20.706
	c-7.439,0-13.471,6.031-13.471,13.471v470.507c0,7.439,6.03,13.471,13.471,13.471H73.23
	C65.79,504.724,59.759,498.692,59.759,491.253z" />
	<g>
		<path style="fill:#EB7259;" d="M495.559,137.71c-10.667,0-206.299,0-216.869,0c-5.038,0-9.124,4.084-9.124,9.124v87.89
		c0,5.038,4.084,9.124,9.124,9.124c8.817,0,206.66,0,216.869,0c5.039,0,9.124-4.084,9.124-9.124v-87.89
		C504.682,141.795,500.598,137.71,495.559,137.71z" />
		<path style="fill:#EB7259;" d="M364.398,268.144c-8.704,0-206.503,0-216.869,0c-5.039,0-9.124,4.084-9.124,9.124v87.89
		c0,5.038,4.084,9.124,9.124,9.124c8.817,0,206.66,0,216.869,0c5.039,0,9.124-4.084,9.124-9.124v-87.891
		C373.521,272.228,369.437,268.144,364.398,268.144z" />
		<path style="fill:#EB7259;" d="M364.398,7.276c-8.704,0-206.503,0-216.869,0c-5.039,0-9.124,4.084-9.124,9.124v87.89
		c0,5.038,4.084,9.124,9.124,9.124c8.817,0,206.66,0,216.869,0c5.039,0,9.124-4.084,9.124-9.124V16.4
		C373.521,11.362,369.437,7.276,364.398,7.276z" />
		<path style="fill:#EB7259;" d="M504.682,104.29V16.4c0-5.038-4.084-9.124-9.124-9.124c-30.875,0-55.54,0-86.783,0
		c-5.038,0-9.124,4.084-9.124,9.124v87.89c0,5.038,4.084,9.124,9.124,9.124c10.175,0,76.605,0,86.783,0
		C500.598,113.414,504.682,109.33,504.682,104.29z" />
		<path style="fill:#EB7259;" d="M504.682,365.158v-87.891c0-5.038-4.084-9.124-9.124-9.124c-32.081,0-57.675,0-86.783,0
		c-5.038,0-9.124,4.084-9.124,9.124v87.89c0,5.038,4.084,9.124,9.124,9.124c30.875,0,55.54,0,86.783,0
		C500.598,374.282,504.682,370.196,504.682,365.158z" />
		<path style="fill:#EB7259;" d="M112.274,104.29V16.4c0-5.038-4.084-9.124-9.124-9.124c-32.083,0-57.68,0-86.783,0
		c-5.039,0-9.124,4.084-9.124,9.124v87.89c0,5.038,4.084,9.124,9.124,9.124c30.875,0,55.54,0,86.783,0
		C108.19,113.414,112.274,109.33,112.274,104.29z" />
		<path style="fill:#EB7259;" d="M112.274,365.158v-87.891c0-5.038-4.084-9.124-9.124-9.124c-32.083,0-57.68,0-86.783,0
		c-5.039,0-9.124,4.084-9.124,9.124v87.89c0,5.038,4.084,9.124,9.124,9.124c30.875,0,55.54,0,86.783,0
		C108.19,374.282,112.274,370.196,112.274,365.158z" />
		<path style="fill:#EB7259;" d="M233.237,137.71c-10.667,0-206.299,0-216.869,0c-5.039,0-9.124,4.084-9.124,9.124v87.89
		c0,5.038,4.084,9.124,9.124,9.124h28.095h160.68h28.095c5.039,0,9.124-4.084,9.124-9.124v-87.89
		C242.359,141.795,238.275,137.71,233.237,137.71z" />
		<path style="fill:#EB7259;" d="M495.559,398.578c-10.667,0-206.299,0-216.869,0c-5.038,0-9.124,4.084-9.124,9.124v87.89
		c0,5.039,4.084,9.124,9.124,9.124c8.817,0,206.66,0,216.869,0c5.039,0,9.124-4.084,9.124-9.124v-87.89
		C504.682,402.662,500.598,398.578,495.559,398.578z" />
		<path style="fill:#EB7259;" d="M233.237,398.578c-8.704,0-206.504,0-216.869,0c-5.039,0-9.124,4.084-9.124,9.124v87.89
		c0,5.039,4.084,9.124,9.124,9.124c8.817,0,206.66,0,216.869,0c5.039,0,9.124-4.084,9.124-9.124v-87.89
		C242.359,402.662,238.275,398.578,233.237,398.578z" />
	</g>
	<g>
		<path style="fill:#DD624E;" d="M59.759,104.29V16.4c0-5.038,4.084-9.124,9.124-9.124c-10.44,0-42.222,0-52.515,0
		c-5.039,0-9.124,4.084-9.124,9.124v87.89c0,5.038,4.084,9.124,9.124,9.124c10.298,0,42.08,0,52.515,0
		C63.843,113.414,59.759,109.33,59.759,104.29z" />
		<path style="fill:#DD624E;" d="M190.92,104.29V16.4c0-5.038,4.084-9.124,9.124-9.124c-10.44,0-42.222,0-52.515,0
		c-5.039,0-9.124,4.084-9.124,9.124v87.89c0,5.038,4.084,9.124,9.124,9.124c10.298,0,42.08,0,52.515,0
		C195.005,113.414,190.92,109.33,190.92,104.29z" />
		<path style="fill:#DD624E;" d="M452.167,104.29V16.4c0-5.038,4.084-9.124,9.124-9.124c-10.44,0-42.222,0-52.515,0
		c-5.039,0-9.124,4.084-9.124,9.124v87.89c0,5.038,4.084,9.124,9.124,9.124c10.298,0,42.08,0,52.515,0
		C456.251,113.414,452.167,109.33,452.167,104.29z" />
		<path style="fill:#DD624E;" d="M322.082,234.724v-87.89c0-5.038,4.084-9.124,9.124-9.124c-10.44,0-42.222,0-52.515,0
		c-5.039,0-9.124,4.084-9.124,9.124v87.89c0,5.038,4.084,9.124,9.124,9.124c10.298,0,42.08,0,52.515,0
		C326.166,243.848,322.082,239.763,322.082,234.724z" />
		<path style="fill:#DD624E;" d="M452.167,365.158v-87.89c0-5.038,4.084-9.124,9.124-9.124c-10.44,0-42.222,0-52.515,0
		c-5.039,0-9.124,4.084-9.124,9.124v87.89c0,5.038,4.084,9.124,9.124,9.124c10.298,0,42.08,0,52.515,0
		C456.251,374.282,452.167,370.196,452.167,365.158z" />
		<path style="fill:#DD624E;" d="M322.082,495.591v-87.89c0-5.038,4.084-9.124,9.124-9.124c-10.44,0-42.222,0-52.515,0
		c-5.039,0-9.124,4.084-9.124,9.124v87.89c0,5.038,4.084,9.124,9.124,9.124c10.298,0,42.08,0,52.515,0
		C326.166,504.715,322.082,500.63,322.082,495.591z" />
		<path style="fill:#DD624E;" d="M190.92,365.158v-87.89c0-5.038,4.084-9.124,9.124-9.124c-10.44,0-42.222,0-52.515,0
		c-5.039,0-9.124,4.084-9.124,9.124v87.89c0,5.038,4.084,9.124,9.124,9.124c10.298,0,42.08,0,52.515,0
		C195.005,374.282,190.92,370.196,190.92,365.158z" />
		<path style="fill:#DD624E;" d="M59.759,365.158v-87.891c0-5.038,4.084-9.124,9.124-9.124c-10.44,0-42.222,0-52.515,0
		c-5.039,0-9.124,4.084-9.124,9.124v87.89c0,5.038,4.084,9.124,9.124,9.124c10.298,0,42.08,0,52.515,0
		C63.843,374.281,59.759,370.196,59.759,365.158z" />
		<path style="fill:#DD624E;" d="M59.759,234.724v-87.89c0-5.038,4.084-9.124,9.124-9.124c-10.44,0-42.222,0-52.515,0
		c-5.039,0-9.124,4.084-9.124,9.124v87.89c0,5.038,4.084,9.124,9.124,9.124h28.095h24.42
		C63.843,243.848,59.759,239.763,59.759,234.724z" />
		<path style="fill:#DD624E;" d="M59.759,495.591v-87.89c0-5.038,4.084-9.124,9.124-9.124c-10.44,0-42.222,0-52.515,0
		c-5.039,0-9.124,4.084-9.124,9.124v87.89c0,5.039,4.084,9.124,9.124,9.124c10.298,0,42.08,0,52.515,0
		C63.843,504.715,59.759,500.63,59.759,495.591z" />
	</g>
	<path d="M495.384,130.319H278.706c-9.162,0-16.615,7.453-16.615,16.615v87.813c0,9.163,7.453,16.616,16.615,16.616h216.678
	c9.162,0,16.615-7.453,16.615-16.616v-87.813C512,137.772,504.547,130.319,495.384,130.319z M497,234.746
	c0,0.891-0.725,1.615-1.614,1.615c-227.952-0.757-218.292,1.562-218.292-1.615v-87.813c0-0.89,0.725-1.614,1.614-1.614
	C506.659,146.076,497,143.757,497,146.933V234.746z" />
	<path d="M147.661,121.044h216.677c9.162,0,16.615-7.453,16.615-16.615V16.616C380.955,7.453,373.501,0,364.339,0H147.661
	c-9.163,0-16.616,7.453-16.616,16.616v87.813C131.046,113.591,138.5,121.044,147.661,121.044z M146.047,16.616
	c0-3.178-9.661-0.859,218.292-1.615c0.89,0,1.614,0.725,1.614,1.615v87.813c0,0.89-0.725,1.614-1.614,1.614H147.661
	c-0.89,0-1.615-0.725-1.615-1.614V16.616H146.047z" />
	<path
		d="M495.384,0h-86.707c-9.162,0-16.615,7.453-16.615,16.616v87.813c0,9.162,7.453,16.615,16.615,16.615h86.707
	c9.162,0,16.615-7.453,16.615-16.615V16.616C512,7.453,504.547,0,495.384,0z M497,104.429c0,0.89-0.725,1.614-1.614,1.614h-86.707
	c-0.89,0-1.614-0.725-1.614-1.614V16.616c0-0.891,0.725-1.615,1.614-1.615h86.707c0.89,0,1.614,0.725,1.614,1.615V104.429z" />
	<path d="M495.384,260.637h-86.707c-9.162,0-16.615,7.453-16.615,16.616v87.813c0,9.162,7.453,16.615,16.615,16.615h86.707
	c9.162,0,16.615-7.453,16.615-16.615v-87.813C512,268.09,504.547,260.637,495.384,260.637z M497,365.066
	c0,0.89-0.725,1.614-1.614,1.614h-86.707c-0.89,0-1.614-0.725-1.614-1.614v-87.813c0-0.891,0.725-1.615,1.614-1.615h86.707
	c0.89,0,1.614,0.725,1.614,1.615V365.066z" />
	<path d="M16.616,381.681h86.707c9.163,0,16.616-7.453,16.616-16.615v-87.813c0-9.163-7.453-16.616-16.616-16.616H16.616
	C7.454,260.637,0,268.09,0,277.253v87.813C0,374.228,7.454,381.681,16.616,381.681z M15.001,277.253
	c0-0.891,0.725-1.615,1.615-1.615h86.707c0.891,0,1.615,0.725,1.615,1.615v87.813c0,0.89-0.724,1.614-1.615,1.614H16.616
	c-0.89,0-1.615-0.725-1.615-1.614V277.253z" />
	<path d="M16.616,251.363h216.677c9.163,0,16.616-7.453,16.616-16.616v-87.813c0-9.162-7.453-16.615-16.616-16.615H16.616
	C7.454,130.319,0,137.772,0,146.934v87.813C0,243.91,7.454,251.363,16.616,251.363z M15.001,146.934
	c0-3.176-9.661-0.858,218.292-1.614c0.89,0,1.615,0.725,1.615,1.614v87.813c0,0.891-0.725,1.615-1.615,1.615
	c-227.953-0.757-218.292,1.561-218.292-1.616V146.934z" />
	<path d="M495.384,390.956H278.706c-9.162,0-16.615,7.453-16.615,16.615v87.813c0,9.163,7.453,16.616,16.615,16.616h216.678
	c9.162,0,16.615-7.453,16.615-16.616v-87.813C512,398.409,504.547,390.956,495.384,390.956z M497,495.383
	c0,0.891-0.725,1.615-1.614,1.615c-227.952-0.757-218.292,1.562-218.292-1.615V407.57c0-3.176-9.66-0.858,218.292-1.614
	c0.89,0,1.614,0.725,1.614,1.614V495.383z" />
	<path
		d="M233.294,390.956H16.616C7.454,390.956,0,398.409,0,407.572v87.812C0,504.547,7.454,512,16.616,512h25.853
	c4.142,0,7.5-3.357,7.5-7.5s-3.358-7.5-7.5-7.5H16.616c-0.89,0-1.615-0.725-1.615-1.615v-87.812c0-0.891,0.725-1.615,1.615-1.615
	c227.952,0.757,218.292-1.562,218.292,1.615v87.812c0,3.181,4.991,0.868-157.438,1.615c-4.142,0-7.5,3.357-7.5,7.5
	s3.358,7.5,7.5,7.5h155.822c9.163,0,16.616-7.453,16.616-16.616v-87.812C249.91,398.409,242.455,390.956,233.294,390.956z" />
	<path
		d="M300.787,275.638c4.143,0,7.5-3.357,7.5-7.5s-3.357-7.5-7.5-7.5H147.661c-9.163,0-16.616,7.453-16.616,16.616v87.813
	c0,9.162,7.453,16.615,16.616,16.615h216.677c9.162,0,16.615-7.453,16.615-16.615v-87.813c0-9.163-7.453-16.616-16.615-16.616
	h-28.551c-4.143,0-7.5,3.357-7.5,7.5s3.357,7.5,7.5,7.5h28.551c0.89,0,1.614,0.725,1.614,1.615v87.813
	c0,3.176,9.661,0.857-218.291,1.614c-0.89,0-1.615-0.725-1.615-1.614v-87.813C146.047,274.07,141.316,276.385,300.787,275.638z" />
	<path d="M16.616,121.044h86.707c9.163,0,16.616-7.453,16.616-16.616V16.616C119.939,7.453,112.485,0,103.323,0H16.616
	C7.454,0,0,7.453,0,16.616v26.405c0,4.143,3.358,7.5,7.5,7.5s7.5-3.357,7.5-7.5V16.616c0-0.89,0.725-1.615,1.615-1.615h86.707
	c0.891,0,1.615,0.725,1.615,1.615v87.812c0,0.891-0.724,1.615-1.615,1.615H16.616c-0.89,0-1.615-0.725-1.615-1.615V78.024
	c0-4.143-3.358-7.5-7.5-7.5S0,73.88,0,78.024v26.405C0,113.591,7.454,121.044,16.616,121.044z" />
	<g>
	</g>
	<g>
	</g>
	<g>
	</g>
	<g>
	</g>
	<g>
	</g>
	<g>
	</g>
	<g>
	</g>
	<g>
	</g>
	<g>
	</g>
	<g>
	</g>
	<g>
	</g>
	<g>
	</g>
	<g>
	</g>
	<g>
	</g>
	<g>
	</g>
</svg>