<svg id="Layer_1" height="512" viewBox="0 0 256 256" width="512" xmlns="http://www.w3.org/2000/svg">
  <g>
    <path
      d="m58.823 125.868 51.314 102.347c2.88 5.744 8.343 9.754 14.686 10.78 1.065.172 2.132.257 3.194.257 5.26 0 10.361-2.078 14.141-5.858l57.331-57.331v19.661c0 11.046 8.954 20 20 20s20-8.954 20-20v-67.973c0-11.046-8.954-20-20-20h-67.973c-11.046 0-20 8.954-20 20s8.954 20 20 20h19.716l-37.759 37.759-79.078-157.722c-4.952-9.874-16.969-13.865-26.843-8.915-9.874 4.951-13.866 16.969-8.915 26.843l32.277 64.378z"
      fill="#f16c7a" />
    <path
      d="m128.017 240.752c-1.143 0-2.298-.093-3.433-.276-6.799-1.1-12.701-5.432-15.788-11.588l-51.314-102.348c-.372-.741-.072-1.642.669-2.013.74-.371 1.642-.072 2.013.669l51.314 102.348c2.656 5.297 7.735 9.025 13.584 9.971 5.814.938 11.896-1.042 16.035-5.181l57.331-57.331c.428-.429 1.074-.559 1.635-.325.56.232.926.779.926 1.386v19.661c0 10.201 8.299 18.5 18.5 18.5s18.5-8.299 18.5-18.5v-67.973c0-10.201-8.299-18.5-18.5-18.5h-67.973c-10.201 0-18.5 8.299-18.5 18.5s8.299 18.5 18.5 18.5h19.716c.607 0 1.154.365 1.386.926s.104 1.206-.325 1.635l-37.759 37.759c-.34.341-.824.496-1.3.42-.476-.077-.886-.378-1.102-.809l-79.078-157.723c-4.573-9.118-15.711-12.818-24.83-8.247-4.417 2.215-7.708 6.017-9.266 10.707s-1.196 9.705 1.019 14.123l32.277 64.378c.372.741.072 1.642-.669 2.013-.74.372-1.642.073-2.013-.669l-32.276-64.377c-2.574-5.134-2.995-10.962-1.185-16.413 1.81-5.45 5.634-9.87 10.768-12.443 10.595-5.313 23.541-1.014 28.856 9.583l78.146 155.865 33.729-33.729h-16.095c-11.855 0-21.5-9.645-21.5-21.5s9.645-21.5 21.5-21.5h67.973c11.855 0 21.5 9.645 21.5 21.5v67.973c0 11.855-9.645 21.5-21.5 21.5s-21.5-9.645-21.5-21.5v-16.04l-54.77 54.77c-4.06 4.062-9.459 6.298-15.201 6.298z"
      fill="#3a312a" />
    <path
      d="m237.994 127.75v67.97c0 10.21-8.3 18.5-18.5 18.5-2.67 0-5.2-.57-7.5-1.59 6.48-2.88 11-9.37 11-16.91v-67.97c0-10.2-8.3-18.5-18.5-18.5h15c10.2 0 18.5 8.3 18.5 18.5z"
      fill="#d34e5c" />
  </g>
</svg>