<svg version="1.1" id="Capa_1" xmlns="http://www.w3.org/2000/svg" xmlns:xlink="http://www.w3.org/1999/xlink" x="0px"
	y="0px" viewBox="0 0 512 512" style="enable-background:new 0 0 512 512;" xml:space="preserve">
	<g>
		<g>
			<circle style="fill:#6CF5C2;" cx="256" cy="256" r="248.5" />
			<path style="fill:#00F2A6;"
				d="M256,7.5c-5.038,0-10.036,0.168-15,0.464C371.256,15.721,474.5,123.795,474.5,256&#10;&#9;&#9;&#9;S371.256,496.279,241,504.036c4.964,0.296,9.962,0.464,15,0.464c137.243,0,248.5-111.257,248.5-248.5S393.243,7.5,256,7.5z" />
			<path style="fill:#6CF5C2;"
				d="M256,256l0.152-248.5c65.855,0.04,129.066,26.257,175.618,72.838S504.5,190.145,504.5,256H256z" />
			<circle style="fill:#0ED290;" cx="256" cy="256" r="192.231" />
			<circle style="fill:#6CF5C2;" cx="256" cy="256" r="131.321" />
			<circle style="fill:#0ED290;" cx="256" cy="256" r="77.391" />
			<path style="fill:#CFFCE9;"
				d="M256,256l0.152-248.5c65.855,0.04,129.066,26.257,175.618,72.838S504.5,190.145,504.5,256H256z" />
			<path style="fill:#9CF8D2;"
				d="M431.77,80.338C385.218,33.757,322.007,7.54,256.152,7.5l-0.001,1.844&#10;&#9;&#9;&#9;c54.813,6.705,106.191,31.542,145.619,70.994C448.322,126.918,474.5,190.145,474.5,256h30&#10;&#9;&#9;&#9;C504.5,190.145,478.322,126.918,431.77,80.338z" />
			<circle style="fill:#FDD602;" cx="136.305" cy="406.148" r="19.607" />
			<circle style="fill:#FDD602;" cx="333.391" cy="83.376" r="19.607" />
			<circle style="fill:#FDD602;" cx="352.998" cy="343.398" r="19.607" />
		</g>
		<g>
			<circle
				style="fill:none;stroke:#000000;stroke-width:15;stroke-linecap:round;stroke-linejoin:round;stroke-miterlimit:10;"
				cx="256" cy="256" r="248.5" />
			<path
				style="fill:none;stroke:#000000;stroke-width:15;stroke-linecap:round;stroke-linejoin:round;stroke-miterlimit:10;"
				d="&#10;&#9;&#9;&#9;M504.5,256H263.13c-3.937,0-7.128-3.193-7.126-7.13L256.152,7.5" />
			<path
				style="fill:none;stroke:#000000;stroke-width:15;stroke-linecap:round;stroke-linejoin:round;stroke-miterlimit:10;"
				d="&#10;&#9;&#9;&#9;M341.678,428.129c-25.797,12.865-54.892,20.102-85.678,20.102c-37.306,0-72.13-10.627-101.61-29.019" />
			<path
				style="fill:none;stroke:#000000;stroke-width:15;stroke-linecap:round;stroke-linejoin:round;stroke-miterlimit:10;"
				d="&#10;&#9;&#9;&#9;M356.638,92.186c54.955,33.833,91.593,94.545,91.593,163.814c0,58.793-26.394,111.422-67.98,146.683" />
			<path
				style="fill:none;stroke:#000000;stroke-width:15;stroke-linecap:round;stroke-linejoin:round;stroke-miterlimit:10;"
				d="&#10;&#9;&#9;&#9;M127.019,113.461C161.126,82.58,206.366,63.769,256,63.769c19.906,0,39.106,3.026,57.164,8.642" />
			<path
				style="fill:none;stroke:#000000;stroke-width:15;stroke-linecap:round;stroke-linejoin:round;stroke-miterlimit:10;"
				d="&#10;&#9;&#9;&#9;M120.072,391.928C85.285,357.141,63.769,309.083,63.769,256c0-40.988,12.828-78.98,34.689-110.18" />
			<path
				style="fill:none;stroke:#000000;stroke-width:15;stroke-linecap:round;stroke-linejoin:round;stroke-miterlimit:10;"
				d="&#10;&#9;&#9;&#9;M336.548,359.725c-22.241,17.296-50.192,27.597-80.548,27.597c-72.527,0-131.321-58.795-131.321-131.321&#10;&#9;&#9;&#9;S183.473,124.679,256,124.679S387.321,183.473,387.321,256c0,25.343-7.179,49.009-19.613,69.075" />

			<circle
				style="fill:none;stroke:#000000;stroke-width:15;stroke-linecap:round;stroke-linejoin:round;stroke-miterlimit:10;"
				cx="256" cy="256" r="77.391" />

			<line
				style="fill:none;stroke:#000000;stroke-width:15;stroke-linecap:round;stroke-linejoin:round;stroke-miterlimit:10;"
				x1="256" y1="387.321" x2="256" y2="504.5" />

			<line
				style="fill:none;stroke:#000000;stroke-width:15;stroke-linecap:round;stroke-linejoin:round;stroke-miterlimit:10;"
				x1="124.679" y1="256" x2="7.5" y2="256" />

			<circle
				style="fill:none;stroke:#000000;stroke-width:15;stroke-linecap:round;stroke-linejoin:round;stroke-miterlimit:10;"
				cx="136.305" cy="406.148" r="19.607" />

			<circle
				style="fill:none;stroke:#000000;stroke-width:15;stroke-linecap:round;stroke-linejoin:round;stroke-miterlimit:10;"
				cx="333.391" cy="83.376" r="19.607" />

			<circle
				style="fill:none;stroke:#000000;stroke-width:15;stroke-linecap:round;stroke-linejoin:round;stroke-miterlimit:10;"
				cx="352.998" cy="343.398" r="19.607" />
		</g>
	</g>
	<g>
	</g>
	<g>
	</g>
	<g>
	</g>
	<g>
	</g>
	<g>
	</g>
	<g>
	</g>
	<g>
	</g>
	<g>
	</g>
	<g>
	</g>
	<g>
	</g>
	<g>
	</g>
	<g>
	</g>
	<g>
	</g>
	<g>
	</g>
	<g>
	</g>
</svg>